{"title":"The Light of the Moon (2017) HDRip 389 MB H264 MPEG-4 AAC Spy198","magnet":"magnet:?xt=urn:btih:283138ea12e63dd6247b55a0bcdec5b873a712ab&dn=The+Light+of+the+Moon+%282017%29+HDRip+389+MB+H264+MPEG-4+AAC+Spy198&tr=udp%3A%2F%2Ftracker.leechers-paradise.org%3A6969&tr=udp%3A%2F%2Fzer0day.ch%3A1337&tr=udp%3A%2F%2Fopen.demonii.com%3A1337&tr=udp%3A%2F%2Ftracker.coppersurfer.tk%3A6969&tr=udp%3A%2F%2Fexodus.desync.com%3A6969","uploader":"spy1984","categoryP":"video","categoryS":"movies","size":"408559435","seeders":"19","leechers":"25","description":"Bonnie is a young New York architect whose life changes forever when a stranger rapes her in an alley. She receives loving and unwavering support from her boyfriend while trying to cope with the devastating effects of the attack.\r\n\r\n\r\n <a href=\"\nhttp://www.4kw.in/4723.html\" rel=\"nofollow\" target=\"_NEW\">\nhttp://www.4kw.in/4723.html</a>\r\n <a href=\"\nhttp://www.4kw.in/4724.html\" rel=\"nofollow\" target=\"_NEW\">\nhttp://www.4kw.in/4724.html</a>\r\n <a href=\"\nhttp://www.4kw.in/4725.html\" rel=\"nofollow\" target=\"_NEW\">\nhttp://www.4kw.in/4725.html</a>\r\n <a href=\"\nhttp://www.4kw.in/4726.html\" rel=\"nofollow\" target=\"_NEW\">\nhttp://www.4kw.in/4726.html</a>\r\n\r\n\r\nFormat                                   : MPEG-4\r\nFormat profile                           : Base Media\r\nCodec ID                                 : isom (isom/iso2/avc1/mp41)\r\nFile size                                : 390 MiB\r\nDuration                                 : 1 h 34 min\r\nOverall bit rate                         : 576 kb/s\r\nWriting application                      : Lavf57.83.100\r\n\r\nID                                       : 1\r\nFormat                                   : AVC\r\nFormat/Info                              : Advanced Video Codec\r\nFormat profile                           : <a href=\"/cdn-cgi/l/email-protection\" class=\"__cf_email__\" data-cfemail=\"145c7d737c5458273a25\">[email&#xA0;protected]</a>\r\nFormat settings                          : CABAC / 5 Ref Frames\r\nFormat settings, CABAC                   : Yes\r\nFormat settings, RefFrames               : 5 frames\r\nCodec ID                                 : avc1\r\nCodec ID/Info                            : Advanced Video Coding\r\nDuration                                 : 1 h 34 min\r\nSource duration                          : 1 min 26 s\r\nBit rate                                 : 512 kb/s\r\nWidth                                    : 720 pixels\r\nHeight                                   : 304 pixels\r\nDisplay aspect ratio                     : 2.35:1\r\nFrame rate mode                          : Constant\r\nFrame rate                               : 23.976 FPS\r\nColor space                              : YUV\r\nChroma subsampling                       : 4:2:0\r\nBit depth                                : 8 bits\r\nScan type                                : Progressive\r\nBits/(Pixel*Frame)                       : 0.098\r\nStream size                              : 343 MiB (88%)\r\nSource stream size                       : 343 MiB (88%)\r\n\r\nID                                       : 2\r\nFormat                                   : AAC\r\nFormat/Info                              : Advanced Audio Codec\r\nFormat profile                           : LC\r\nCodec ID                                 : mp4a-40-2\r\nDuration                                 : 1 h 34 min\r\nBit rate mode                            : Constant\r\nBit rate                                 : 66.2 kb/s\r\nChannel(s)                               : 2 channels\r\nChannel positions                        : Front: L R\r\nSampling rate                            : 48.0 kHz\r\nFrame rate                               : 46.875 FPS (1024 SPF)\r\nCompression mode                         : Lossy\r\nStream size                              : 43.8 MiB (11%)\r\nDefault                                  : Yes\r\nAlternate group                          : 1","last_updated":"2018-01-08T12:03:49.289Z","parsed":{"xt":"urn:btih:283138ea12e63dd6247b55a0bcdec5b873a712ab","dn":"The Light of the Moon (2017) HDRip 389 MB H264 MPEG-4 AAC Spy198","tr":["udp://exodus.desync.com:6969","udp://open.demonii.com:1337","udp://tracker.coppersurfer.tk:6969","udp://tracker.leechers-paradise.org:6969","udp://zer0day.ch:1337"],"infoHash":"283138ea12e63dd6247b55a0bcdec5b873a712ab","infoHashBuffer":{"type":"Buffer","data":[40,49,56,234,18,230,61,214,36,123,85,160,188,222,197,184,115,167,18,171]},"name":"The Light of the Moon (2017) HDRip 389 MB H264 MPEG-4 AAC Spy198","announce":["udp://exodus.desync.com:6969","udp://open.demonii.com:1337","udp://tracker.coppersurfer.tk:6969","udp://tracker.leechers-paradise.org:6969","udp://zer0day.ch:1337"],"urlList":[]}}